<?xml version="1.0" encoding="UTF-8"?>
<svg xmlns="http://www.w3.org/2000/svg" xmlns:xlink="http://www.w3.org/1999/xlink" width="144px" height="46px" viewBox="0 0 144 46" version="1.1">
<g id="surface1">
<path style=" stroke:none;fill-rule:nonzero;fill:rgb(99.215686%,99.215686%,99.607843%);fill-opacity:1;" d="M 0 0 C 47.519531 0 95.039062 0 144 0 C 144 15.179688 144 30.359375 144 46 C 96.480469 46 48.960938 46 0 46 C 0 30.820312 0 15.640625 0 0 Z M 0 0 "/>
<path style=" stroke:none;fill-rule:nonzero;fill:rgb(83.137256%,17.647059%,17.647059%);fill-opacity:1;" d="M 44.632812 10.078125 C 45.035156 10.402344 45.035156 10.402344 45.445312 10.734375 C 45.160156 12.867188 44.675781 14.609375 43.769531 16.558594 C 43.539062 17.054688 43.3125 17.554688 43.074219 18.066406 C 42.835938 18.578125 42.597656 19.085938 42.351562 19.613281 C 42.109375 20.136719 41.867188 20.660156 41.621094 21.195312 C 41.027344 22.480469 40.429688 23.761719 39.828125 25.042969 C 39.542969 24.9375 39.257812 24.828125 38.960938 24.71875 C 32.289062 22.328125 25.96875 23.402344 19.277344 25.15625 C 15.570312 26.113281 11.6875 27.007812 8.171875 25.042969 C 7.363281 23.707031 7.363281 23.707031 6.691406 22.039062 C 6.445312 21.441406 6.203125 20.84375 5.949219 20.230469 C 5.703125 19.605469 5.457031 18.980469 5.203125 18.335938 C 4.945312 17.699219 4.683594 17.066406 4.425781 16.429688 C 3.792969 14.875 3.167969 13.316406 2.554688 11.753906 C 12.855469 0.582031 33.023438 1.777344 44.632812 10.078125 Z M 44.632812 10.078125 "/>
<path style=" stroke:none;fill-rule:nonzero;fill:rgb(15.294118%,45.882353%,76.862746%);fill-opacity:1;" d="M 18.382812 27.089844 C 19.730469 27.089844 21.078125 27.089844 22.46875 27.089844 C 23.648438 29.449219 24.828125 31.8125 26.042969 34.246094 C 27.007812 32.796875 27.832031 31.332031 28.660156 29.804688 C 28.933594 29.296875 29.210938 28.789062 29.492188 28.265625 C 29.703125 27.875 29.910156 27.488281 30.128906 27.089844 C 31.476562 27.089844 32.824219 27.089844 34.210938 27.089844 C 34.210938 31.644531 34.210938 36.195312 34.210938 40.890625 C 33.03125 40.890625 31.855469 40.890625 30.636719 40.890625 C 30.386719 37.601562 30.386719 37.601562 30.128906 34.246094 C 29.285156 35.929688 28.441406 37.617188 27.574219 39.355469 C 26.730469 39.355469 25.890625 39.355469 25.019531 39.355469 C 24.011719 37.332031 23 35.308594 21.957031 33.222656 C 21.789062 35.753906 21.621094 38.28125 21.445312 40.890625 C 20.4375 40.890625 19.425781 40.890625 18.382812 40.890625 C 18.382812 36.335938 18.382812 31.78125 18.382812 27.089844 Z M 18.382812 27.089844 "/>
<path style=" stroke:none;fill-rule:nonzero;fill:rgb(14.901961%,45.490196%,76.862746%);fill-opacity:1;" d="M 103.148438 30.15625 C 104.328125 30.15625 105.507812 30.15625 106.722656 30.15625 C 106.722656 30.492188 106.722656 30.832031 106.722656 31.179688 C 107.230469 30.839844 107.734375 30.503906 108.253906 30.15625 C 110.054688 29.964844 110.988281 29.945312 112.53125 30.921875 C 112.804688 31.175781 113.078125 31.429688 113.363281 31.6875 C 113.636719 31.4375 113.910156 31.183594 114.191406 30.921875 C 115.769531 29.921875 116.625 29.890625 118.46875 30.15625 C 119.832031 30.914062 119.832031 30.914062 121.019531 32.199219 C 121.335938 33.703125 121.261719 35.144531 121.179688 36.671875 C 121.167969 37.078125 121.15625 37.484375 121.144531 37.898438 C 121.117188 38.898438 121.070312 39.894531 121.019531 40.890625 C 119.839844 40.890625 118.664062 40.890625 117.445312 40.890625 C 117.277344 38.527344 117.109375 36.167969 116.9375 33.734375 C 116.09375 33.902344 115.25 34.070312 114.382812 34.246094 C 114.214844 36.4375 114.046875 38.628906 113.871094 40.890625 C 112.691406 40.890625 111.511719 40.890625 110.296875 40.890625 C 110.128906 38.695312 109.960938 36.503906 109.789062 34.246094 C 109.113281 34.074219 108.4375 33.90625 107.746094 33.734375 C 106.785156 34.691406 107.035156 36.308594 106.945312 37.597656 C 106.882812 38.515625 106.882812 38.515625 106.816406 39.453125 C 106.785156 39.925781 106.753906 40.402344 106.722656 40.890625 C 105.542969 40.890625 104.363281 40.890625 103.148438 40.890625 C 103.148438 37.347656 103.148438 33.804688 103.148438 30.15625 Z M 103.148438 30.15625 "/>
<path style=" stroke:none;fill-rule:nonzero;fill:rgb(14.117648%,44.705883%,76.47059%);fill-opacity:1;" d="M 55.148438 26.578125 C 56.328125 26.578125 57.507812 26.578125 58.722656 26.578125 C 58.722656 31.300781 58.722656 36.023438 58.722656 40.890625 C 57.019531 40.890625 55.320312 40.890625 53.617188 40.890625 C 52.890625 40.953125 52.890625 40.953125 52.148438 41.015625 C 50.15625 40.855469 49.414062 40.21875 48 38.84375 C 47.117188 37.078125 47.238281 35.15625 47.488281 33.222656 C 48.40625 31.753906 49.011719 30.925781 50.554688 30.15625 C 53.382812 30.039062 53.382812 30.039062 54.636719 30.667969 C 54.808594 29.316406 54.976562 27.96875 55.148438 26.578125 Z M 55.148438 26.578125 "/>
<path style=" stroke:none;fill-rule:nonzero;fill:rgb(13.725491%,44.705883%,76.47059%);fill-opacity:1;" d="M 68.425781 30.15625 C 71.234375 31.6875 71.234375 31.6875 72 33.222656 C 72.214844 34.785156 72.246094 36.261719 72 37.820312 C 70.886719 39.230469 70.023438 40.089844 68.425781 40.890625 C 65.722656 41.066406 63.964844 41.152344 61.789062 39.355469 C 60.601562 37.828125 60.523438 36.136719 60.566406 34.226562 C 60.90625 32.511719 61.992188 31.710938 63.320312 30.667969 C 64.957031 29.847656 66.648438 29.90625 68.425781 30.15625 Z M 68.425781 30.15625 "/>
<path style=" stroke:none;fill-rule:nonzero;fill:rgb(14.117648%,45.09804%,76.47059%);fill-opacity:1;" d="M 129.703125 30.15625 C 131.53125 30.992188 132.148438 31.53125 133.277344 33.222656 C 133.277344 34.234375 133.277344 35.246094 133.277344 36.289062 C 130.917969 36.289062 128.558594 36.289062 126.128906 36.289062 C 126.632812 36.792969 127.140625 37.300781 127.660156 37.820312 C 129.519531 37.703125 129.519531 37.703125 131.234375 37.3125 C 131.570312 37.984375 131.90625 38.660156 132.253906 39.355469 C 130.367188 40.773438 128.90625 41.15625 126.605469 41.074219 C 125.035156 40.78125 124.152344 39.96875 123.0625 38.84375 C 122.179688 37.078125 122.304688 35.15625 122.554688 33.222656 C 124.433594 30.207031 126.253906 29.777344 129.703125 30.15625 Z M 129.703125 30.15625 "/>
<path style=" stroke:none;fill-rule:nonzero;fill:rgb(14.509805%,45.09804%,76.47059%);fill-opacity:1;" d="M 35.234375 30.15625 C 36.414062 30.15625 37.59375 30.15625 38.808594 30.15625 C 39.152344 30.886719 39.492188 31.625 39.828125 32.359375 C 40.113281 32.972656 40.113281 32.972656 40.402344 33.597656 C 40.851562 34.753906 40.851562 34.753906 40.851562 36.289062 C 41.1875 36.289062 41.523438 36.289062 41.871094 36.289062 C 41.933594 35.75 42 35.214844 42.0625 34.660156 C 42.335938 32.988281 42.710938 31.6875 43.402344 30.15625 C 44.582031 30.15625 45.761719 30.15625 46.980469 30.15625 C 42.558594 42.179688 42.558594 42.179688 40.914062 43.988281 C 39.464844 44.628906 38.332031 44.601562 36.765625 44.464844 C 36.429688 44.296875 36.09375 44.128906 35.746094 43.957031 C 35.914062 43.113281 36.082031 42.269531 36.253906 41.398438 C 37.265625 41.398438 38.277344 41.398438 39.320312 41.398438 C 38.261719 37.511719 36.839844 33.847656 35.234375 30.15625 Z M 35.234375 30.15625 "/>
<path style=" stroke:none;fill-rule:nonzero;fill:rgb(12.941177%,43.921569%,76.078433%);fill-opacity:1;" d="M 83.746094 27.089844 C 87.621094 27.089844 91.496094 27.089844 95.488281 27.089844 C 95.488281 27.933594 95.488281 28.777344 95.488281 29.644531 C 94.140625 29.644531 92.792969 29.644531 91.402344 29.644531 C 91.402344 33.355469 91.402344 37.066406 91.402344 40.890625 C 90.226562 40.890625 89.046875 40.890625 87.828125 40.890625 C 87.828125 37.179688 87.828125 33.46875 87.828125 29.644531 C 86.480469 29.644531 85.132812 29.644531 83.746094 29.644531 C 83.746094 28.800781 83.746094 27.957031 83.746094 27.089844 Z M 83.746094 27.089844 "/>
<path style=" stroke:none;fill-rule:nonzero;fill:rgb(99.215686%,96.470588%,96.470588%);fill-opacity:1;" d="M 22.46875 8.6875 C 23.648438 8.6875 24.828125 8.6875 26.042969 8.6875 C 26.042969 9.871094 26.042969 11.050781 26.042969 12.265625 C 27.222656 12.265625 28.402344 12.265625 29.617188 12.265625 C 29.617188 13.617188 29.617188 14.964844 29.617188 16.355469 C 28.4375 16.355469 27.257812 16.355469 26.042969 16.355469 C 26.042969 17.535156 26.042969 18.71875 26.042969 19.933594 C 24.863281 19.933594 23.683594 19.933594 22.46875 19.933594 C 22.46875 18.753906 22.46875 17.570312 22.46875 16.355469 C 21.289062 16.355469 20.109375 16.355469 18.894531 16.355469 C 18.894531 15.007812 18.894531 13.65625 18.894531 12.265625 C 20.074219 12.265625 21.253906 12.265625 22.46875 12.265625 C 22.46875 11.085938 22.46875 9.90625 22.46875 8.6875 Z M 22.46875 8.6875 "/>
<path style=" stroke:none;fill-rule:nonzero;fill:rgb(14.117648%,45.09804%,76.47059%);fill-opacity:1;" d="M 80.171875 30.15625 C 81.925781 30.921875 81.925781 30.921875 83.234375 31.6875 C 83.066406 32.195312 82.898438 32.699219 82.722656 33.222656 C 80.976562 33.621094 79.402344 33.734375 77.617188 33.734375 C 76.96875 34.273438 76.96875 34.273438 77.011719 35.492188 C 76.96875 36.886719 76.96875 36.886719 78.128906 37.820312 C 79.144531 37.835938 79.144531 37.835938 80.234375 37.628906 C 80.886719 37.523438 81.539062 37.417969 82.210938 37.3125 C 82.71875 38.070312 82.71875 38.070312 83.234375 38.84375 C 81.75 40.472656 80.671875 40.84375 78.445312 41.046875 C 76.292969 40.863281 75.550781 40.351562 74.042969 38.84375 C 73.085938 36.929688 73.191406 34.792969 73.53125 32.710938 C 75.085938 30.199219 77.382812 29.757812 80.171875 30.15625 Z M 80.171875 30.15625 "/>
<path style=" stroke:none;fill-rule:nonzero;fill:rgb(16.470589%,46.27451%,77.254903%);fill-opacity:1;" d="M 97.019531 30.15625 C 98.199219 30.15625 99.378906 30.15625 100.597656 30.15625 C 100.597656 33.699219 100.597656 37.238281 100.597656 40.890625 C 99.417969 40.890625 98.238281 40.890625 97.019531 40.890625 C 97.019531 37.347656 97.019531 33.804688 97.019531 30.15625 Z M 97.019531 30.15625 "/>
<path style=" stroke:none;fill-rule:nonzero;fill:rgb(90.980393%,94.117647%,97.254902%);fill-opacity:1;" d="M 66.925781 32.839844 C 67.914062 33.222656 67.914062 33.222656 68.9375 34.246094 C 69.125 35.710938 69.128906 36.496094 68.328125 37.757812 C 67.402344 38.332031 67.402344 38.332031 66.0625 38.207031 C 64.851562 37.820312 64.851562 37.820312 64.339844 37.3125 C 64.210938 35.554688 64.210938 35.554688 64.339844 33.734375 C 65.871094 32.710938 65.871094 32.710938 66.925781 32.839844 Z M 66.925781 32.839844 "/>
<path style=" stroke:none;fill-rule:nonzero;fill:rgb(94.901961%,96.862745%,98.431373%);fill-opacity:1;" d="M 52.597656 32.710938 C 53.96875 33.160156 53.96875 33.160156 55.148438 33.734375 C 55.148438 34.914062 55.148438 36.09375 55.148438 37.3125 C 53.96875 37.886719 53.96875 37.886719 52.597656 38.332031 C 52.089844 37.996094 51.585938 37.660156 51.0625 37.3125 C 50.871094 35.523438 50.871094 35.523438 51.0625 33.734375 C 51.570312 33.394531 52.074219 33.058594 52.597656 32.710938 Z M 52.597656 32.710938 "/>
<path style=" stroke:none;fill-rule:nonzero;fill:rgb(16.862746%,46.666667%,77.254903%);fill-opacity:1;" d="M 97.53125 25.554688 C 98.386719 25.703125 99.238281 25.871094 100.085938 26.066406 C 100.402344 27.023438 100.402344 27.023438 100.597656 28.109375 C 100.257812 28.449219 99.921875 28.785156 99.574219 29.132812 C 98.234375 28.941406 98.234375 28.941406 97.019531 28.621094 C 97 27.769531 97 26.917969 97.019531 26.066406 C 97.191406 25.898438 97.359375 25.730469 97.53125 25.554688 Z M 97.53125 25.554688 "/>
<path style=" stroke:none;fill-rule:nonzero;fill:rgb(92.156863%,94.901961%,97.647059%);fill-opacity:1;" d="M 126.128906 36.289062 C 129.21875 36.1875 129.21875 36.1875 130.210938 36.289062 C 130.550781 36.625 130.886719 36.964844 131.234375 37.3125 C 129.921875 38.140625 129.355469 38.355469 127.789062 38.140625 C 127.40625 38.035156 127.027344 37.929688 126.636719 37.820312 C 126.46875 37.316406 126.300781 36.808594 126.128906 36.289062 Z M 126.128906 36.289062 "/>
<path style=" stroke:none;fill-rule:nonzero;fill:rgb(94.117647%,96.078432%,98.431373%);fill-opacity:1;" d="M 126.636719 32.710938 C 127.480469 32.710938 128.324219 32.710938 129.191406 32.710938 C 129.359375 33.21875 129.527344 33.722656 129.703125 34.246094 C 128.523438 34.246094 127.34375 34.246094 126.128906 34.246094 C 126.296875 33.738281 126.464844 33.234375 126.636719 32.710938 Z M 126.636719 32.710938 "/>
</g>
</svg>
